<?xml version="1.0" encoding="UTF-8"?><!DOCTYPE svg PUBLIC "-//W3C//DTD SVG 1.1//EN" "http://www.w3.org/Graphics/SVG/1.1/DTD/svg11.dtd"><svg xmlns="http://www.w3.org/2000/svg" xmlns:xlink="http://www.w3.org/1999/xlink" version="1.1" width="24" height="24" viewBox="0 0 24 24"><path d="M17.2982 11C17.2982 14 14.7612 16.098 12 16.098C9.23719 16.098 6.6992 14 6.6992 11L5 11C5 14.413 7.7182 17.231 11 17.7161L11 21L13 21L13 17.7161C16.2782 17.231 19 14.413 19 11M10.7992 4.89807C10.7992 4.23602 11.3382 3.69806 12 3.69806C12.6602 3.69806 13.1982 4.23907 13.1982 4.89807L13.1902 11.098C13.1902 11.7601 12.6552 12.298 12 12.298C11.3382 12.298 10.7992 11.7601 10.7992 11.098M12 14C13.6562 14 15 12.6541 15 11L15 5C15 3.34003 13.6562 2 12 2C10.3432 2 9 3.34003 9 5L9 11C9 12.6541 10.3432 14 12 14Z" /></svg>