<?xml version="1.0" encoding="UTF-8"?><!DOCTYPE svg PUBLIC "-//W3C//DTD SVG 1.1//EN" "http://www.w3.org/Graphics/SVG/1.1/DTD/svg11.dtd"><svg xmlns="http://www.w3.org/2000/svg" xmlns:xlink="http://www.w3.org/1999/xlink" version="1.1" width="24" height="24" viewBox="0 0 24 24"><path d="M19 10L17.2984 10C17.2984 13 14.7614 15.098 12 15.098C9.23738 15.098 6.69938 13 6.69938 10L5 10C5 13.413 7.71838 16.231 11 16.7161L11 20L13 20L13 16.7161C16.2784 16.231 19 13.413 19 10ZM15 24L17 24L17 22L15 22M11 24L13 24L13 22L11 22M12 13C13.6564 13 15 11.6541 15 10L15 4C15 2.34003 13.6564 1 12 1C10.3434 1 9 2.34003 9 4L9 10C9 11.6541 10.3434 13 12 13ZM7 24L9 24L9 22L7 22L7 24Z" /></svg>